#!OML:ASF H:\LiuWeirdWalks\Patient Classification 1\Patient 1\Session 1\male.ASF
:FULLY-SPECIFIED
:DEGREES
206
root 2.19777 19.298 15.4536 0.876441 1.04187 -3.29022
lowerback 4.77015 -1.78228 -5.41892
upperback -0.358738 -2.62035 2.40267
thorax -2.69319 -1.21331 5.7233
lowerneck -22.3271 0.652958 6.367
upperneck 8.42669 -1.17437 1.38939
head 6.1134 -0.219875 -0.69014
rclavicle -2.00586e-014 2.14687e-014
rhumerus -42.1016 19.773 -85.9402
rradius 77.5282
rwrist -21.1453
rhand -10.4903 2.80034
rfingers 7.12502
rthumb 15.5115 -26.5975
lclavicle -2.00586e-014 2.14687e-014
lhumerus -38.1834 -18.769 82.8227
lradius 55.8007
lwrist 19.4223
lhand -13.5539 -5.53206
lfingers 7.12502
lthumb 12.5593 24.0704
rfemur -19.6221 -16.1917 21.108
rtibia 63.6339
rfoot -0.569396 -23.0985
rtoes -1.91677
lfemur -6.64282 0.310669 -15.7475
ltibia 32.2803
lfoot 8.40248 7.75386
ltoes -21.3108
207
root 2.22098 19.3488 15.6498 0.714221 1.34875 -3.05297
lowerback 4.95112 -2.12104 -5.62246
upperback -0.321434 -3.08725 2.63689
thorax -2.66854 -1.44472 6.12006
lowerneck -22.1749 0.836875 6.68857
upperneck 8.35847 -0.950676 0.982001
head 6.06816 -0.139636 -0.847646
rclavicle 5.31283e-015 -8.74653e-015
rhumerus -42.4285 19.151 -84.8688
rradius 79.2666
rwrist -21.7878
rhand -10.5356 2.93575
rfingers 7.12502
rthumb 15.4678 -26.4654
lclavicle 5.31283e-015 -8.74653e-015
lhumerus -37.9299 -20.4921 82.2942
lradius 56.9389
lwrist 19.0683
lhand -12.9268 -6.05796
lfingers 7.12502
lthumb 13.1638 23.5065
rfemur -20.9698 -16.7578 21.2823
rtibia 62.8788
rfoot -1.28146 -22.1569
rtoes -3.12813
lfemur -6.22669 0.223929 -15.958
ltibia 32.4497
lfoot 8.17315 7.69745
ltoes -21.3691
208
root 2.24554 19.3918 15.8473 0.555406 1.67573 -2.81798
lowerback 5.14602 -2.43721 -5.79589
upperback -0.245422 -3.52319 2.86965
thorax -2.61051 -1.66394 6.49697
lowerneck -22.1696 1.00644 6.94488
upperneck 8.33079 -0.743263 0.592568
head 6.06036 -0.0657875 -0.991112
rclavicle -6.68724e-014 6.65929e-015
rhumerus -42.6383 18.4712 -83.6918
rradius 80.9495
rwrist -22.2837
rhand -10.5797 3.13338
rfingers 7.12502
rthumb 15.4254 -26.2711
lclavicle -6.68724e-014 6.65929e-015
lhumerus -37.4889 -22.1581 81.6198
lradius 58.082
lwrist 18.9063
lhand -12.317 -6.34378
lfingers 7.12502
lthumb 13.7515 23.1818
rfemur -22.2317 -17.2832 21.4451
rtibia 61.9377
rfoot -1.99378 -21.3338
rtoes -4.29988
lfemur -5.81273 0.130044 -16.1748
ltibia 32.6109
lfoot 7.63183 7.83186
ltoes -21.5485
209
root 2.27063 19.4284 16.0459 0.40092 1.9841 -2.60117
lowerback 5.3567 -2.75277 -5.97211
upperback -0.157135 -3.9598 3.10716
thorax -2.54125 -1.88499 6.88208
lowerneck -22.1777 1.20842 7.24362
upperneck 8.31811 -0.503298 0.178786
head 6.06196 0.0236544 -1.14562
rclavicle 1.61388e-014 -7.95139e-015
rhumerus -42.7855 17.8151 -82.4973
rradius 82.5718
rwrist -22.6078
rhand -10.6294 3.39566
rfingers 7.12502
rthumb 15.3775 -26.0125
lclavicle 1.61388e-014 -7.95139e-015
lhumerus -36.9235 -23.7051 80.7525
lradius 59.1937
lwrist 18.8791
lhand -11.6896 -6.44667
lfingers 7.12502
lthumb 14.3561 23.0369
rfemur -23.4071 -17.7139 21.6203
rtibia 60.8052
rfoot -2.68591 -20.6521
rtoes -5.3827
lfemur -5.37823 0.00554689 -16.3819
ltibia 32.6963
lfoot 6.9383 8.15372
ltoes -21.7279
210
root 2.29579 19.4584 16.246 0.24011 2.25902 -2.39763
lowerback 5.57176 -3.10271 -6.18403
upperback -0.107335 -4.44675 3.32451
thorax -2.4982 -2.12939 7.27189
lowerneck -21.8844 1.49454 7.74898
upperneck 8.19827 -0.169447 -0.315522
head 5.98755 0.155258 -1.34827
rclavicle -2.77429e-014 -1.61016e-014
rhumerus -42.9886 17.2532 -81.4288
rradius 84.1238
rwrist -22.7687
rhand -10.7117 3.72072
rfingers 7.12502
rthumb 15.2982 -25.6935
lclavicle -2.77429e-014 -1.61016e-014
lhumerus -36.3985 -25.1147 79.6672
lradius 60.261
lwrist 18.9821
lhand -11.0783 -6.40008
lfingers 7.12502
lthumb 14.945 23.0407
rfemur -24.4829 -18.042 21.7954
rtibia 59.4898
rfoot -3.33188 -20.1092
rtoes -6.33411
lfemur -4.8954 -0.162783 -16.5843
ltibia 32.6552
lfoot 6.2272 8.64704
ltoes -21.6953
